<?xml version="1.0" standalone="no"?>
<!DOCTYPE svg PUBLIC "-//W3C//DTD SVG 20010904//EN"
 "http://www.w3.org/TR/2001/REC-SVG-20010904/DTD/svg10.dtd">
<svg version="1.0" xmlns="http://www.w3.org/2000/svg"
 width="720.000000pt" height="576.000000pt" viewBox="0 0 720.000000 576.000000"
 preserveAspectRatio="xMidYMid meet">

<g transform="translate(0.000000,576.000000) scale(0.100000,-0.100000)"
fill="#000000" stroke="none">
<path d="M1520 5050 c0 -7 655 -10 1945 -10 1290 0 1945 3 1945 10 0 7 -655
10 -1945 10 -1290 0 -1945 -3 -1945 -10z"/>
<path d="M1520 4730 c0 -7 638 -10 1895 -10 1257 0 1895 3 1895 10 0 7 -638
10 -1895 10 -1257 0 -1895 -3 -1895 -10z"/>
<path d="M1520 4410 c0 -7 673 -10 2000 -10 1327 0 2000 3 2000 10 0 7 -673
10 -2000 10 -1327 0 -2000 -3 -2000 -10z"/>
<path d="M1398 3782 c-62 -37 -58 59 -58 -1547 0 -1365 1 -1469 17 -1496 38
-63 -132 -59 2245 -59 1697 0 2168 3 2187 13 13 6 34 25 45 40 l21 28 0 1479
0 1479 -21 28 c-11 15 -32 34 -45 40 -19 10 -491 13 -2194 13 -2026 -1 -2172
-2 -2197 -18z m4142 -342 c0 -7 -607 -10 -1800 -10 -1193 0 -1800 3 -1800 10
0 7 607 10 1800 10 1193 0 1800 -3 1800 -10z m-3840 -10 c0 -5 -18 -10 -40
-10 -22 0 -40 5 -40 10 0 6 18 10 40 10 22 0 40 -4 40 -10z m0 -300 c0 -5 -18
-10 -40 -10 -22 0 -40 5 -40 10 0 6 18 10 40 10 22 0 40 -4 40 -10z m1860 0
c0 -7 -277 -10 -810 -10 -533 0 -810 3 -810 10 0 7 277 10 810 10 533 0 810
-3 810 -10z m-1860 -300 c0 -5 -18 -10 -40 -10 -22 0 -40 5 -40 10 0 6 18 10
40 10 22 0 40 -4 40 -10z m2880 0 c0 -7 -373 -10 -1100 -10 -727 0 -1100 3
-1100 10 0 7 373 10 1100 10 727 0 1100 -3 1100 -10z m-2880 -300 c0 -5 -18
-10 -40 -10 -22 0 -40 5 -40 10 0 6 18 10 40 10 22 0 40 -4 40 -10z m2640 0
c0 -7 -333 -10 -980 -10 -647 0 -980 3 -980 10 0 7 333 10 980 10 647 0 980
-3 980 -10z m-2640 -300 c0 -5 -18 -10 -40 -10 -22 0 -40 5 -40 10 0 6 18 10
40 10 22 0 40 -4 40 -10z m2640 0 c0 -7 -333 -10 -980 -10 -647 0 -980 3 -980
10 0 7 333 10 980 10 647 0 980 -3 980 -10z m-2640 -300 c0 -5 -18 -10 -40
-10 -22 0 -40 5 -40 10 0 6 18 10 40 10 22 0 40 -4 40 -10z m3050 0 c0 -7
-480 -10 -1420 -10 -940 0 -1420 3 -1420 10 0 7 480 10 1420 10 940 0 1420 -3
1420 -10z m-3050 -300 c0 -5 -18 -10 -40 -10 -22 0 -40 5 -40 10 0 6 18 10 40
10 22 0 40 -4 40 -10z m3620 -10 c0 -7 -577 -10 -1710 -10 -1133 0 -1710 3
-1710 10 0 7 577 10 1710 10 1133 0 1710 -3 1710 -10z m-3620 -290 c0 -5 -18
-10 -40 -10 -22 0 -40 5 -40 10 0 6 18 10 40 10 22 0 40 -4 40 -10z m2880 -10
c0 -7 -373 -10 -1100 -10 -727 0 -1100 3 -1100 10 0 7 373 10 1100 10 727 0
1100 -3 1100 -10z m-2880 -290 c0 -5 -18 -10 -40 -10 -22 0 -40 5 -40 10 0 6
18 10 40 10 22 0 40 -4 40 -10z m2640 -10 c0 -7 -333 -10 -980 -10 -647 0
-980 3 -980 10 0 7 333 10 980 10 647 0 980 -3 980 -10z"/>
</g>
</svg>
