<?xml version="1.0" encoding="UTF-8" standalone="no"?>
<svg
   width="79"
   height="31"
   viewBox="0 0 79 31"
   fill="none"
   version="1.1"
   id="svg13"
   sodipodi:docname="payback.svg"
   inkscape:export-filename="payback/payback.svg"
   inkscape:export-xdpi="96"
   inkscape:export-ydpi="96"
   inkscape:version="1.3.2 (091e20e, 2023-11-25)"
   xmlns:inkscape="http://www.inkscape.org/namespaces/inkscape"
   xmlns:sodipodi="http://sodipodi.sourceforge.net/DTD/sodipodi-0.dtd"
   xmlns="http://www.w3.org/2000/svg"
   xmlns:svg="http://www.w3.org/2000/svg">
  <defs
     id="defs13" />
  <sodipodi:namedview
     id="namedview13"
     pagecolor="#ffffff"
     bordercolor="#000000"
     borderopacity="0.25"
     inkscape:showpageshadow="2"
     inkscape:pageopacity="0.0"
     inkscape:pagecheckerboard="0"
     inkscape:deskcolor="#d1d1d1"
     inkscape:zoom="7.3797468"
     inkscape:cx="39.5"
     inkscape:cy="15.447684"
     inkscape:window-width="1392"
     inkscape:window-height="957"
     inkscape:window-x="2040"
     inkscape:window-y="89"
     inkscape:window-maximized="0"
     inkscape:current-layer="svg13" />
  <path
     d="M4.93172 2.019C3.04608 2.019 1.51745 3.54916 1.51745 5.43671V25.5632C1.51745 27.4508 3.04608 28.981 4.93172 28.981H73.9754C75.8611 28.981 77.3901 27.4508 77.3901 25.5632V5.43671C77.3901 3.54916 75.8611 2.019 73.9754 2.019H4.93172Z"
     fill="#003EB0"
     id="path1" />
  <path
     d="M61.4568 14.9304C59.5741 14.9304 58.0425 13.3972 58.0425 11.5127C58.0425 9.62814 59.5741 8.09492 61.4568 8.09492C63.3394 8.09492 64.8711 9.62814 64.8711 11.5127C64.8711 13.3972 63.3394 14.9304 61.4568 14.9304ZM61.4568 8.76501C59.9432 8.76501 58.7119 9.99763 58.7119 11.5127C58.7119 13.0277 59.9432 14.2603 61.4568 14.2603C62.9703 14.2603 64.2017 13.0277 64.2017 11.5127C64.2017 9.99763 62.9703 8.76501 61.4568 8.76501Z"
     fill="white"
     id="path2" />
  <path
     d="M61.4568 22.905C59.5741 22.905 58.0425 21.3719 58.0425 19.4875C58.0425 17.6029 59.5741 16.0696 61.4568 16.0696C63.3394 16.0696 64.8711 17.6029 64.8711 19.4875C64.8711 21.3719 63.3394 22.905 61.4568 22.905ZM61.4568 16.7396C59.9432 16.7396 58.7119 17.9723 58.7119 19.4875C58.7119 21.0025 59.9432 22.235 61.4568 22.235C62.9703 22.235 64.2017 21.0025 64.2017 19.4875C64.2017 17.9723 62.9703 16.7396 61.4568 16.7396Z"
     fill="white"
     id="path3" />
  <path
     d="M69.4245 14.9304C67.5413 14.9304 66.0092 13.3977 66.0092 11.5138C66.0092 9.6286 67.5413 8.09492 69.4245 8.09492C71.3067 8.09492 72.8379 9.6286 72.8379 11.5138C72.8379 13.3977 71.3067 14.9304 69.4245 14.9304Z"
     fill="white"
     id="path4" />
  <path
     d="M69.4232 22.905C67.5407 22.905 66.0092 21.3719 66.0092 19.4875C66.0092 17.6029 67.5407 16.0696 69.4232 16.0696C71.3061 16.0696 72.8379 17.6029 72.8379 19.4875C72.8379 21.3719 71.3061 22.905 69.4232 22.905ZM69.4232 16.7396C67.9097 16.7396 66.6785 17.9723 66.6785 19.4875C66.6785 21.0025 67.9097 22.235 69.4232 22.235C70.9367 22.235 72.1681 21.0025 72.1681 19.4875C72.1681 17.9723 70.9367 16.7396 69.4232 16.7396Z"
     fill="white"
     id="path5" />
  <path
     d="M73.9758 30.5H4.93172C2.21236 30.5 0 28.2854 0 25.5633V5.4367C0 2.71459 2.21236 0.5 4.93172 0.5H73.9758C76.6952 0.5 78.9076 2.71459 78.9076 5.4367V25.5633C78.9076 28.2854 76.6952 30.5 73.9758 30.5ZM4.93172 2.019C3.04907 2.019 1.51745 3.55216 1.51745 5.43671V25.5632C1.51745 27.4478 3.04907 28.981 4.93172 28.981H73.9754C75.8581 28.981 77.3901 27.4478 77.3901 25.5632V5.43671C77.3901 3.55216 75.8581 2.019 73.9754 2.019H4.93172Z"
     fill="white"
     id="path6" />
  <path
     d="M12.6505 14.3152C12.6505 12.6094 11.5411 11.9726 9.87267 11.9726H6.82953V19.0058H8.56933V16.7284H9.73979C11.45 16.7284 12.6505 16.0914 12.6505 14.2946M10.7252 14.3689C10.7252 14.9027 10.3967 15.3217 9.75825 15.3217H8.50242V13.4462H9.78955C10.4177 13.4462 10.7252 13.9076 10.7252 14.3689Z"
     fill="white"
     id="path7" />
  <path
     d="M26.2155 11.9726H24.1491C24.1491 11.9726 22.6977 14.8136 22.5647 15.2237C22.431 14.8136 20.9817 11.9726 20.9817 11.9726H18.8949L21.6848 16.8869V19.0058H23.4246V16.8569L26.2155 11.9726Z"
     fill="white"
     id="path8" />
  <path
     d="M32.9393 16.7347C32.9393 15.9412 32.5652 15.4488 31.9278 15.1783C32.4018 14.9058 32.7769 14.5668 32.7769 13.8035C32.7769 12.6266 32.059 11.9726 30.2964 11.9726H27.038V19.0058H30.344C32.1256 19.0058 32.9393 18.1723 32.9393 16.7347ZM31.1191 14.1159C31.1191 14.4505 30.9031 14.7858 30.3454 14.7858H28.7778V13.3792H30.3454C30.9578 13.3792 31.1191 13.8019 31.1191 14.1159ZM31.2751 16.8846C31.2751 17.2891 30.9763 17.7331 30.4857 17.7331H28.7778V16.0585H30.4978C30.9662 16.0585 31.2751 16.4698 31.2751 16.8846Z"
     fill="white"
     id="path9" />
  <path
     d="M47.385 17.3172L45.7163 16.4389C45.3274 17.1041 45.0641 17.5869 44.443 17.5869C43.589 17.5869 43.0235 16.581 43.0235 15.502C43.0235 14.3802 43.5992 13.4152 44.4246 13.4152C45.0752 13.4152 45.3193 13.9767 45.5747 14.6338L47.3637 13.9383C46.8754 12.6036 46.1845 11.8573 44.4339 11.8573C42.5201 11.8573 41.1779 13.2302 41.1779 15.502C41.1779 17.589 42.3076 19.1427 44.4246 19.1427C46.1144 19.1427 46.9067 18.244 47.385 17.3172Z"
     fill="white"
     id="path10" />
  <path
     d="M54.6893 19.0058L52.2894 14.6542L54.4451 11.9726H52.3859C52.3859 11.9726 50.4542 14.5248 50.1596 14.9835C50.1807 14.4704 50.1908 11.9726 50.1908 11.9726H48.451V19.0058H50.1908V16.9446L51.2215 15.8381L52.7572 19.0058H54.8232H54.6893Z"
     fill="white"
     id="path11" />
  <path
     d="M40.7927 19.0728L38.1943 11.9726H36.1914L33.594 19.0728H35.5654L36.0276 17.7331H38.3376L38.8001 19.0728H40.7927ZM38.0121 16.3934H36.3851C36.3851 16.3934 37.091 13.8962 37.1823 13.4236C37.2746 13.8962 37.9797 16.3934 37.9797 16.3934"
     fill="white"
     id="path12" />
  <path
     d="M19.6742 19.0728L17.0758 11.9726H15.0729L12.4755 19.0728H14.4469L14.9091 17.7331H17.2191L17.6815 19.0728H19.6742ZM16.8668 16.3934H15.2666C15.2666 16.3934 15.9725 13.8962 16.0638 13.4236C16.1561 13.8962 16.8612 16.3934 16.8612 16.3934"
     fill="white"
     id="path13" />
</svg>
