<?xml version="1.0" standalone="no"?>
<!DOCTYPE svg PUBLIC "-//W3C//DTD SVG 20010904//EN"
 "http://www.w3.org/TR/2001/REC-SVG-20010904/DTD/svg10.dtd">
<svg version="1.0" xmlns="http://www.w3.org/2000/svg"
 width="720.000000pt" height="576.000000pt" viewBox="0 0 720.000000 576.000000"
 preserveAspectRatio="xMidYMid meet">

<g transform="translate(0.000000,576.000000) scale(0.100000,-0.100000)"
fill="#000000" stroke="none">
<path d="M1520 4830 c0 -7 700 -10 2080 -10 1380 0 2080 3 2080 10 0 7 -700
10 -2080 10 -1380 0 -2080 -3 -2080 -10z"/>
<path d="M1520 4490 c0 -7 700 -10 2080 -10 1380 0 2080 3 2080 10 0 7 -700
10 -2080 10 -1380 0 -2080 -3 -2080 -10z"/>
<path d="M1520 4330 c0 -7 653 -10 1940 -10 1287 0 1940 3 1940 10 0 7 -653
10 -1940 10 -1287 0 -1940 -3 -1940 -10z"/>
<path d="M1520 3150 c0 -7 700 -10 2080 -10 1380 0 2080 3 2080 10 0 7 -700
10 -2080 10 -1380 0 -2080 -3 -2080 -10z"/>
<path d="M1520 2810 c0 -7 700 -10 2080 -10 1380 0 2080 3 2080 10 0 7 -700
10 -2080 10 -1380 0 -2080 -3 -2080 -10z"/>
<path d="M1520 2650 c0 -7 653 -10 1940 -10 1287 0 1940 3 1940 10 0 7 -653
10 -1940 10 -1287 0 -1940 -3 -1940 -10z"/>
<path d="M1520 1470 c0 -7 700 -10 2080 -10 1380 0 2080 3 2080 10 0 7 -700
10 -2080 10 -1380 0 -2080 -3 -2080 -10z"/>
<path d="M1520 1130 c0 -7 700 -10 2080 -10 1380 0 2080 3 2080 10 0 7 -700
10 -2080 10 -1380 0 -2080 -3 -2080 -10z"/>
<path d="M1520 970 c0 -7 653 -10 1940 -10 1287 0 1940 3 1940 10 0 7 -653 10
-1940 10 -1287 0 -1940 -3 -1940 -10z"/>
</g>
</svg>
