<?xml version="1.0" standalone="no"?>
<!DOCTYPE svg PUBLIC "-//W3C//DTD SVG 20010904//EN"
 "http://www.w3.org/TR/2001/REC-SVG-20010904/DTD/svg10.dtd">
<svg version="1.0" xmlns="http://www.w3.org/2000/svg"
 width="720.000000pt" height="576.000000pt" viewBox="0 0 720.000000 576.000000"
 preserveAspectRatio="xMidYMid meet">

<g transform="translate(0.000000,576.000000) scale(0.100000,-0.100000)"
fill="#000000" stroke="none">
<path d="M1520 5050 c0 -7 700 -10 2080 -10 1380 0 2080 3 2080 10 0 7 -700
10 -2080 10 -1380 0 -2080 -3 -2080 -10z"/>
<path d="M1520 4730 c0 -7 653 -10 1940 -10 1287 0 1940 3 1940 10 0 7 -653
10 -1940 10 -1287 0 -1940 -3 -1940 -10z"/>
<path d="M1520 4410 c0 -7 637 -10 1890 -10 1253 0 1890 3 1890 10 0 7 -637
10 -1890 10 -1253 0 -1890 -3 -1890 -10z"/>
<path d="M1520 4090 c0 -7 673 -10 2000 -10 1327 0 2000 3 2000 10 0 7 -673
10 -2000 10 -1327 0 -2000 -3 -2000 -10z"/>
<path d="M1520 1950 c0 -7 700 -10 2080 -10 1380 0 2080 3 2080 10 0 7 -700
10 -2080 10 -1380 0 -2080 -3 -2080 -10z"/>
<path d="M1520 1630 c0 -7 653 -10 1940 -10 1287 0 1940 3 1940 10 0 7 -653
10 -1940 10 -1287 0 -1940 -3 -1940 -10z"/>
<path d="M1520 1310 c0 -7 637 -10 1890 -10 1253 0 1890 3 1890 10 0 7 -637
10 -1890 10 -1253 0 -1890 -3 -1890 -10z"/>
<path d="M1520 990 c0 -7 673 -10 2000 -10 1327 0 2000 3 2000 10 0 7 -673 10
-2000 10 -1327 0 -2000 -3 -2000 -10z"/>
</g>
</svg>
